<svg xmlns="http://www.w3.org/2000/svg" width="1024" height="1024" viewBox="0 0 1024 1024">
  <defs>
    <linearGradient id="body" x1="0" y1="0" x2="0" y2="1">
      <stop offset="0" stop-color="#33363D"/>
      <stop offset="1" stop-color="#202226"/>
    </linearGradient>
    <linearGradient id="rim" x1="0" y1="0" x2="1" y2="1">
      <stop offset="0" stop-color="#FFFFFF" stop-opacity="0.16"/>
      <stop offset="0.5" stop-color="#FFFFFF" stop-opacity="0.02"/>
      <stop offset="1" stop-color="#000000" stop-opacity="0.35"/>
    </linearGradient>
    <linearGradient id="well" x1="0" y1="0" x2="0" y2="1">
      <stop offset="0" stop-color="#16181B"/>
      <stop offset="1" stop-color="#1D1F23"/>
    </linearGradient>
    <linearGradient id="wellrim" x1="0" y1="0" x2="1" y2="1">
      <stop offset="0" stop-color="#000000" stop-opacity="0.55"/>
      <stop offset="0.55" stop-color="#000000" stop-opacity="0"/>
      <stop offset="1" stop-color="#FFFFFF" stop-opacity="0.10"/>
    </linearGradient>
    <linearGradient id="acc" gradientUnits="userSpaceOnUse" x1="0" y1="352" x2="0" y2="672">
      <stop offset="0" stop-color="#6EE7B7"/>
      <stop offset="1" stop-color="#22C08A"/>
    </linearGradient>
    <filter id="drop" x="-20%" y="-20%" width="140%" height="150%">
      <feDropShadow dx="0" dy="18" stdDeviation="22" flood-color="#000" flood-opacity="0.45"/>
    </filter>
    <filter id="glow" x="-20%" y="-40%" width="140%" height="180%">
      <feGaussianBlur stdDeviation="10" result="b"/>
      <feMerge><feMergeNode in="b"/><feMergeNode in="SourceGraphic"/></feMerge>
    </filter>
  </defs>
  <rect x="100" y="100" width="824" height="824" rx="185" fill="url(#body)" filter="url(#drop)"/>
  <rect x="102" y="102" width="820" height="820" rx="183" fill="none" stroke="url(#rim)" stroke-width="4"/>
  <rect x="200" y="312" width="624" height="400" rx="72" fill="url(#well)"/>
  <rect x="201.5" y="313.5" width="621" height="397" rx="70.5" fill="none" stroke="url(#wellrim)" stroke-width="3"/>
  <line x1="236" y1="512" x2="788" y2="512" stroke="#3A3E46" stroke-width="3"/>
  <g filter="url(#glow)">
    <line x1="262.0" y1="505.0" x2="262.0" y2="519.0" stroke="url(#acc)" stroke-opacity="1" stroke-width="15" stroke-linecap="round"/>
<line x1="287.0" y1="427.3" x2="287.0" y2="596.7" stroke="url(#acc)" stroke-opacity="1" stroke-width="15" stroke-linecap="round"/>
<line x1="312.0" y1="376.5" x2="312.0" y2="647.5" stroke="url(#acc)" stroke-opacity="1" stroke-width="15" stroke-linecap="round"/>
<line x1="337.0" y1="425.8" x2="337.0" y2="598.2" stroke="url(#acc)" stroke-opacity="1" stroke-width="15" stroke-linecap="round"/>
<line x1="362.0" y1="402.6" x2="362.0" y2="621.4" stroke="url(#acc)" stroke-opacity="1" stroke-width="15" stroke-linecap="round"/>
<line x1="387.0" y1="435.5" x2="387.0" y2="588.5" stroke="url(#acc)" stroke-opacity="1" stroke-width="15" stroke-linecap="round"/>
<line x1="412.0" y1="437.2" x2="412.0" y2="586.8" stroke="url(#acc)" stroke-opacity="1" stroke-width="15" stroke-linecap="round"/>
<line x1="437.0" y1="440.3" x2="437.0" y2="583.7" stroke="url(#acc)" stroke-opacity="1" stroke-width="15" stroke-linecap="round"/>
<line x1="462.0" y1="468.9" x2="462.0" y2="555.1" stroke="url(#acc)" stroke-opacity="1" stroke-width="15" stroke-linecap="round"/>
<line x1="487.0" y1="455.2" x2="487.0" y2="568.8" stroke="url(#acc)" stroke-opacity="1" stroke-width="15" stroke-linecap="round"/>
<line x1="512.0" y1="470.8" x2="512.0" y2="553.2" stroke="url(#acc)" stroke-opacity="1" stroke-width="15" stroke-linecap="round"/>
<line x1="537.0" y1="473.9" x2="537.0" y2="550.1" stroke="url(#acc)" stroke-opacity="1" stroke-width="15" stroke-linecap="round"/>
<line x1="562.0" y1="474.1" x2="562.0" y2="549.9" stroke="url(#acc)" stroke-opacity="1" stroke-width="15" stroke-linecap="round"/>
<line x1="587.0" y1="490.4" x2="587.0" y2="533.6" stroke="#34D399" stroke-opacity="0.38" stroke-width="15" stroke-linecap="round"/>
<line x1="612.0" y1="482.6" x2="612.0" y2="541.4" stroke="#34D399" stroke-opacity="0.38" stroke-width="15" stroke-linecap="round"/>
<line x1="637.0" y1="489.9" x2="637.0" y2="534.1" stroke="#34D399" stroke-opacity="0.38" stroke-width="15" stroke-linecap="round"/>
<line x1="662.0" y1="492.6" x2="662.0" y2="531.4" stroke="#34D399" stroke-opacity="0.38" stroke-width="15" stroke-linecap="round"/>
<line x1="687.0" y1="492.1" x2="687.0" y2="531.9" stroke="#34D399" stroke-opacity="0.38" stroke-width="15" stroke-linecap="round"/>
<line x1="712.0" y1="500.7" x2="712.0" y2="523.3" stroke="#34D399" stroke-opacity="0.38" stroke-width="15" stroke-linecap="round"/>
<line x1="737.0" y1="496.8" x2="737.0" y2="527.2" stroke="#34D399" stroke-opacity="0.38" stroke-width="15" stroke-linecap="round"/>
<line x1="762.0" y1="500.1" x2="762.0" y2="523.9" stroke="#34D399" stroke-opacity="0.38" stroke-width="15" stroke-linecap="round"/>
  </g>
  <line x1="584.5" y1="352" x2="584.5" y2="672" stroke="#E9EBEF" stroke-width="7" stroke-linecap="round"/>
</svg>